<svg width="1461" height="801" viewBox="0 0 1461 801" fill="none" xmlns="http://www.w3.org/2000/svg">
<g clip-path="url(#clip0_151_9795)">
<path fill-rule="evenodd" clip-rule="evenodd" d="M1312.11 276.858V276.858H1314.07C1439.67 276.858 1541.5 175.036 1541.5 49.4319C1541.5 49.2879 1541.5 49.1439 1541.5 49H1312.11V49.328C1192.23 55.7243 1097 154.954 1097 276.427C1097 276.571 1097 276.714 1097 276.858H1312.11Z" fill="#205D69"/>
<path fill-rule="evenodd" clip-rule="evenodd" d="M1265.12 456.433L1265 456.433L1265 332L1427.01 332C1488.22 332 1538.16 380.243 1540.88 440.779L1541 440.779L1541 565.212L1378.99 565.212C1317.78 565.212 1267.84 516.969 1265.12 456.433Z" fill="#205D69"/>
<circle cx="1140.5" cy="392.5" r="60.5" fill="#205D69"/>
<path fill-rule="evenodd" clip-rule="evenodd" d="M-0.499603 59C30.4294 59 55.5024 84.0729 55.5024 115.002V219.296L129.249 145.55C151.119 123.68 186.577 123.68 208.447 145.55C230.317 167.42 230.317 202.879 208.447 224.749L134.698 298.499H238.998C269.927 298.499 295 323.572 295 354.501C295 385.43 269.927 410.503 238.998 410.503H134.698L208.447 484.252C230.317 506.122 230.317 541.58 208.447 563.45C186.577 585.321 151.118 585.321 129.248 563.45L55.5024 489.705V593.998C55.5024 624.927 30.4294 650 -0.499634 650C-31.4287 650 -56.5016 624.927 -56.5016 593.998L-56.5016 489.698L-130.254 563.45C-152.124 585.32 -187.583 585.32 -209.453 563.45C-231.323 541.58 -231.323 506.122 -209.453 484.252L-135.704 410.503H-239.998C-270.927 410.503 -296 385.43 -296 354.501C-296 323.572 -270.927 298.499 -239.998 298.499H-135.704L-209.453 224.749C-231.323 202.879 -231.323 167.42 -209.453 145.55C-187.583 123.68 -152.125 123.68 -130.254 145.55L-56.5016 219.303V115.002C-56.5016 84.073 -31.4286 59 -0.499603 59Z" fill="#205D69"/>
<path fill-rule="evenodd" clip-rule="evenodd" d="M645.378 650.001V650H420C420 650.151 420 650.301 420 650.451C420 777.33 519.473 880.976 644.686 887.656V888H884.276C884.277 887.85 884.277 887.699 884.277 887.549C884.277 756.355 777.923 650.001 646.729 650.001H645.378Z" fill="#205D69"/>
<circle cx="315.5" cy="589.5" r="60.5" fill="#205D69"/>
</g>
<defs>
<clipPath id="clip0_151_9795">
<rect width="1461" height="801" fill="white"/>
</clipPath>
</defs>
</svg>
